<svg xmlns="http://www.w3.org/2000/svg" enable-background="new 0 0 128 128" viewBox="0 0 128 128" width="128" height="128"><path fill="#fbbc05" d="M69.225,39.76L69.225,39.76c1.86,2.041,4.739,2.813,7.37,1.975l0,0   c3.72-1.184,7.695,0.871,8.88,4.591c0.066,0.209,0.123,0.421,0.17,0.635l0,0c0.59,2.698,2.697,4.805,5.395,5.395l0,0   c3.814,0.834,6.229,4.602,5.395,8.416c-0.047,0.214-0.104,0.426-0.17,0.634l0,0c-0.838,2.631-0.067,5.51,1.975,7.37l0,0   c2.886,2.629,3.094,7.1,0.464,9.986c-0.147,0.162-0.302,0.317-0.464,0.464l0,0c-2.041,1.86-2.813,4.739-1.975,7.37l0,0   c1.184,3.72-0.871,7.695-4.591,8.88c-0.209,0.066-0.421,0.123-0.635,0.17l0,0c-2.698,0.59-4.805,2.697-5.395,5.395l0,0   c-0.834,3.814-4.602,6.229-8.416,5.395c-0.214-0.047-0.426-0.104-0.634-0.17l0,0c-2.631-0.838-5.51-0.067-7.37,1.975l0,0   c-2.629,2.886-7.1,3.094-9.986,0.464c-0.162-0.147-0.317-0.302-0.464-0.464l0,0c-1.86-2.041-4.739-2.813-7.37-1.975l0,0   c-3.72,1.184-7.695-0.871-8.88-4.591c-0.066-0.209-0.123-0.421-0.17-0.635l0,0c-0.59-2.698-2.697-4.805-5.395-5.395l0,0   c-3.814-0.834-6.229-4.602-5.395-8.416c0.047-0.214,0.104-0.426,0.17-0.634l0,0c0.838-2.631,0.067-5.51-1.975-7.37l0,0   c-2.886-2.629-3.094-7.1-0.464-9.986c0.147-0.162,0.302-0.317,0.464-0.464l0,0c2.041-1.86,2.813-4.739,1.975-7.37l0,0   c-1.184-3.72,0.871-7.695,4.591-8.88c0.209-0.066,0.421-0.123,0.635-0.17l0,0c2.698-0.59,4.805-2.697,5.395-5.395l0,0   c0.834-3.814,4.602-6.229,8.416-5.395c0.214,0.047,0.426,0.104,0.634,0.17l0,0c2.631,0.838,5.51,0.067,7.37-1.975l0,0   c2.629-2.886,7.1-3.094,9.986-0.465C68.923,39.443,69.078,39.598,69.225,39.76z"/><path fill="#f4950c" d="M96.265,61.405c1.184-3.72-0.871-7.695-4.591-8.88c-0.209-0.066-0.421-0.123-0.635-0.17   c-0.843-0.19-1.644-0.533-2.362-1.013c-5.98,12.791-23.344,44.187-49.95,44.956c1.851,0.967,3.179,2.703,3.627,4.743l0,0   c0.834,3.814,4.602,6.229,8.416,5.395c0.214-0.047,0.426-0.104,0.634-0.17c2.632-0.838,5.51-0.067,7.37,1.975   c2.629,2.886,7.1,3.094,9.986,0.464c0.162-0.147,0.317-0.302,0.464-0.464c1.86-2.042,4.738-2.813,7.37-1.975l0,0   c3.72,1.184,7.696-0.871,8.88-4.591c0.066-0.209,0.123-0.42,0.17-0.634c0.59-2.698,2.697-4.805,5.395-5.395   c3.814-0.834,6.229-4.602,5.395-8.416c-0.047-0.214-0.104-0.426-0.17-0.634c-0.838-2.632-0.067-5.51,1.975-7.37   c2.886-2.629,3.094-7.1,0.464-9.986c-0.147-0.162-0.302-0.317-0.464-0.464C96.198,66.915,95.427,64.036,96.265,61.405z"/><path fill="#f4950c" d="M91.04,95.65c-2.698,0.585-4.805,2.692-5.39,5.39c-0.844,3.823-4.628,6.238-8.451,5.393   c-0.205-0.045-0.408-0.1-0.609-0.163c-2.627-0.84-5.503-0.07-7.36,1.97c-2.632,2.888-7.107,3.096-9.995,0.465   c-0.162-0.148-0.317-0.303-0.465-0.465c-1.857-2.04-4.733-2.81-7.36-1.97c-3.733,1.181-7.716-0.888-8.897-4.621   c-0.063-0.2-0.118-0.403-0.163-0.609c-0.155-0.719-0.425-1.407-0.8-2.04c-0.661-1.152-1.64-2.089-2.82-2.7   c10.03-0.29,18.75-4.94,26.04-11.3h31.19c0.04,0.54,0.144,1.074,0.31,1.59c1.184,3.726-0.876,7.708-4.603,8.892   C91.461,95.548,91.252,95.604,91.04,95.65z"/><circle cx="64" cy="74" r="29" fill="#ffe161"/><path fill="#fbbc05" d="M44.644,95.59c11.922,10.692,30.254,9.695,40.946-2.226c9.516-10.611,9.91-26.564,0.929-37.631   C85,79,66,96,44.644,95.59z"/><path fill="#fbbc05" d="M66 82c-1.105 0-2-.895-2-2V64c0-1.105.895-2 2-2s2 .895 2 2v16C68 81.105 67.105 82 66 82zM74 82c-1.105 0-2-.895-2-2V64c0-1.105.895-2 2-2h6c3.314 0 6 2.686 6 6s-2.686 6-6 6h-4v6C76 81.105 75.105 82 74 82zM76 70h4c1.105 0 2-.895 2-2s-.895-2-2-2h-4V70zM53 82c-.875 0-1.648-.568-1.909-1.403l-5-16c-.33-1.054.258-2.176 1.312-2.506 1.054-.33 2.176.258 2.506 1.312l0 0L53 73.295l3.091-9.892c.33-1.054 1.451-1.642 2.506-1.313 1.054.33 1.642 1.451 1.312 2.506l-5 16C54.648 81.432 53.875 82 53 82z"/><path fill="#4c4372" d="M65 81c-1.105 0-2-.895-2-2V63c0-1.105.895-2 2-2s2 .895 2 2v16C67 80.105 66.105 81 65 81zM73 81c-1.105 0-2-.895-2-2V63c0-1.105.895-2 2-2h6c3.314 0 6 2.686 6 6 0 3.314-2.686 6-6 6h-4v6C75 80.105 74.105 81 73 81zM75 69h4c1.105 0 2-.895 2-2s-.895-2-2-2h-4V69zM52 81c-.875 0-1.648-.568-1.909-1.403l-5-16c-.33-1.054.258-2.176 1.312-2.506 1.054-.33 2.176.258 2.506 1.312l0 0L52 72.295l3.091-9.892c.33-1.054 1.451-1.642 2.506-1.312 1.054.33 1.642 1.451 1.312 2.506l0 0-5 16C53.648 80.432 52.875 81 52 81z"/><path fill="#ffe161" d="M64.754 15.508l2.648 4.684c.143.252.388.43.672.488l5.273 1.071c.541.11.891.638.781 1.179-.036.178-.12.343-.243.477l-3.637 3.966c-.196.214-.289.502-.257.789l.611 5.346c.063.549-.331 1.044-.88 1.107-.181.021-.363-.008-.529-.084l-4.896-2.233c-.264-.12-.566-.12-.83 0l-4.896 2.233c-.502.229-1.096.008-1.325-.495-.075-.165-.104-.348-.084-.529l.611-5.346c.033-.288-.061-.576-.257-.789l-3.637-3.966c-.373-.407-.346-1.04.061-1.413.134-.123.299-.207.477-.243l5.273-1.071c.284-.058.529-.236.672-.488l2.648-4.684c.272-.481.882-.65 1.363-.378C64.534 15.219 64.665 15.35 64.754 15.508zM108.289 31.748l-.355 2.787c-.037.287.053.577.246.793l1.872 2.095c.368.412.332 1.044-.079 1.412-.135.121-.301.203-.48.237l-2.761.524c-.285.054-.532.229-.678.479l-1.414 2.428c-.278.477-.89.639-1.367.361-.157-.091-.286-.224-.374-.383l-1.351-2.464c-.139-.254-.382-.435-.665-.496l-2.746-.595c-.54-.117-.883-.649-.766-1.189.038-.178.125-.341.249-.474l1.926-2.047c.199-.211.296-.498.267-.786l-.283-2.796c-.056-.549.345-1.04.894-1.096.181-.018.363.013.527.09l2.541 1.199c.262.124.565.128.83.011l2.571-1.133c.505-.223 1.096.006 1.318.512C108.285 31.384 108.312 31.567 108.289 31.748zM27.941 31.748l-.355 2.787c-.037.287.053.577.246.793l1.872 2.095c.368.412.332 1.044-.079 1.412-.135.121-.301.203-.48.237l-2.761.524c-.285.054-.532.229-.678.479l-1.414 2.428c-.278.477-.89.639-1.367.361-.157-.091-.286-.224-.373-.383l-1.351-2.464c-.139-.254-.382-.435-.665-.496l-2.746-.595c-.54-.117-.883-.649-.766-1.189.038-.178.125-.341.249-.474l1.926-2.047c.199-.211.296-.498.267-.786l-.283-2.796c-.056-.549.345-1.04.894-1.096.181-.018.363.013.527.09l2.541 1.199c.262.124.565.128.83.011l2.571-1.133c.505-.223 1.096.006 1.318.512C27.937 31.384 27.964 31.567 27.941 31.748z"/><path fill="#ff1849" d="M16,107h17c1.105,0,2-0.895,2-2V93H16c-0.552,0-1,0.448-1,1c0,0.239,0.085,0.47,0.241,0.651   l3.469,4.048c0.642,0.749,0.642,1.854,0,2.603l-3.469,4.048c-0.359,0.419-0.311,1.051,0.108,1.41C15.53,106.915,15.761,107,16,107z   "/><path fill="#e00e45" d="M35,93v12c0,1.105-0.895,2-2,2h-3l-4.219-2.812c-1.113-0.742-1.781-1.991-1.781-3.328V93H35z"/><path fill="#bf0640" d="M35,99v6c0.004,0.548-0.225,1.071-0.63,1.44c0,0-4.37-2.44-6.37-3.44c-0.984-0.492-2-0.9-2-2   c0.003-1.103,0.897-1.997,2-2H35z"/><path fill="#bf0640" d="M28,99c-1.103,0.003-1.997,0.897-2,2v-2H28z"/><path fill="#ff1849" d="M112,107H95c-1.105,0-2-0.895-2-2V93h19c0.552,0,1,0.448,1,1c0,0.239-0.085,0.47-0.241,0.651   l-3.469,4.048c-0.642,0.749-0.642,1.854,0,2.603l3.469,4.048c0.359,0.419,0.311,1.051-0.108,1.41   C112.47,106.915,112.239,107,112,107z"/><path fill="#e00e45" d="M93,93v12c0,1.105,0.895,2,2,2h16c-11-5-7-14-7-14H93z"/><path fill="#bf0640" d="M93,99v6c-0.004,0.548,0.225,1.071,0.63,1.44c0,0,4.37-2.44,6.37-3.44c0.984-0.492,2-0.9,2-2   c-0.003-1.103-0.897-1.997-2-2H93z"/><path fill="#bf0640" d="M100,99c1.103,0.003,1.997,0.897,2,2v-2H100z"/><path fill="#ff1849" d="M100,85H28c-1.105,0-2,0.895-2,2v14c0.003-1.103,0.897-1.997,2-2h72c1.103,0.003,1.997,0.897,2,2V87   C102,85.895,101.105,85,100,85z"/><path fill="#e00e45" d="M67,99h33c1.103,0.003,1.997,0.897,2,2V87c0-1.105-0.895-2-2-2H85C83,89,78.208,95.263,67,99z"/><path fill="#fbbc05" d="M70.603 33.509l-.611-5.346c-.033-.288.061-.576.257-.789l3.637-3.966c.373-.407.346-1.04-.061-1.413-.134-.123-.299-.207-.477-.243l-4.279-.869C69.15 22.82 67.98 26.02 65 29c-2.273 2.027-4.941 3.562-7.836 4.509-.063.549.331 1.044.88 1.107.181.021.363-.008.529-.084l4.896-2.233c.264-.12.566-.12.83 0l4.896 2.233c.502.229 1.096.008 1.325-.495C70.595 33.872 70.624 33.689 70.603 33.509zM110.053 37.423l-1.873-2.095c-.193-.216-.283-.505-.246-.793l.355-2.788c.068-.545-.318-1.043-.863-1.111-.045-.006-.09-.008-.136-.008.431 1.87-.55 6.632-2.29 8.371-.839.948-2.106 1.399-3.355 1.194l1.256 2.287c.266.484.873.661 1.358.396.159-.087.292-.217.383-.374l1.414-2.428c.146-.25.393-.425.678-.479l2.761-.524c.543-.103.899-.626.796-1.169C110.256 37.724 110.174 37.559 110.053 37.423zM24.967 38.695c-2.727.782-6.354-.174-7.963-.687.025.448.347.824.786.918l2.746.595c.283.061.526.242.665.496l1.351 2.464c.266.484.873.661 1.358.396.159-.087.292-.217.383-.374l1.414-2.428c.146-.25.393-.425.678-.479l2.761-.524c.543-.103.899-.626.796-1.169-.034-.179-.116-.344-.237-.48l-1.149-1.286C27.678 37.367 26.415 38.267 24.967 38.695z"/></svg>