<?xml version="1.0" encoding="UTF-8"?>
<svg width="1024px" height="1024px" viewBox="0 0 1024 1024" version="1.1" xmlns="http://www.w3.org/2000/svg" xmlns:xlink="http://www.w3.org/1999/xlink">
    <!-- Generator: Sketch 63.1 (92452) - https://sketch.com -->
    <title>工具icon/Tool_m1/0045_xiai</title>
    <desc>Created with Sketch.</desc>
    <g id="工具icon/Tool_m1/0045_xiai" stroke="none" stroke-width="1" fill="none" fill-rule="evenodd" fill-opacity="1">
        <path d="M889.719887,220.682425 C987.325728,330.70861 982.733326,498.493677 879.257805,602.918326 L534.727021,950.496397 C528.706993,956.589464 520.527484,960.009809 512,960.000034 C503.473963,960.012492 495.294658,956.595879 489.272979,950.506529 L144.742195,602.918326 C41.2666742,498.493677 36.6742718,330.70861 134.280113,220.682425 C231.885955,110.656241 397.688687,96.7169643 512,188.926966 C626.311313,96.7169643 792.114045,110.656241 889.719887,220.682425 Z M534.727021,255.340254 C522.177222,267.998348 501.832821,267.998348 489.283022,255.340254 C449.707883,215.194793 395.856708,192.691814 339.734608,192.847934 C254.194972,192.845922 177.077501,244.829364 144.343956,324.55711 C111.610412,404.284856 129.707551,496.054805 190.196236,557.072387 L512,881.722423 L833.803764,557.072387 C887.300457,503.189081 908.219947,424.595924 888.674843,350.925321 C869.12974,277.254719 812.092657,219.711225 739.068596,199.990776 C666.044535,180.270328 588.139717,201.372206 534.727021,255.340254 Z M383.015457,273.874035 C387.000093,286.834656 378.53038,300.244827 364.102598,303.824266 C278.791726,324.978578 228.549429,404.532023 252.09844,481.167633 C256.083076,494.128254 247.613364,507.538425 233.185582,511.117863 C230.758919,511.720091 228.322815,512 225.943364,512 C214.055551,512 203.149734,504.917462 199.835498,494.128254 C184.576797,444.465665 191.752919,392.436575 220.060832,347.625736 C248.359303,302.814898 294.390349,270.591469 349.674816,256.884425 C364.102598,253.304987 379.03082,260.913414 383.015457,273.874035 Z" id="形状" fill="#FFFFFF" fill-rule="nonzero"></path>
    </g>
</svg>