<?xml version="1.0" encoding="utf-8"?>
<!-- Generator: Adobe Illustrator 25.2.1, SVG Export Plug-In . SVG Version: 6.00 Build 0)  -->
<svg version="1.1" id="Capa_1" xmlns="http://www.w3.org/2000/svg" xmlns:xlink="http://www.w3.org/1999/xlink" x="0px" y="0px"
	 viewBox="0 0 100 60" style="enable-background:new 0 0 100 60;" xml:space="preserve">
<style type="text/css">
	.st0{fill-rule:evenodd;clip-rule:evenodd;fill:#231F20;}
	.st1{fill-rule:evenodd;clip-rule:evenodd;fill:#FFFFFF;}
	.st2{fill:#231F20;}
</style>
<g id="surface1">
	<path class="st0" d="M15.6,12.2h4v37.2h-4V12.2"/>
	<path class="st0" d="M20.9,12.2h1.2v37.2h-1.2V12.2"/>
	<path class="st0" d="M23.2,12.2h2.2v37.2h-2.2V12.2"/>
	<path class="st0" d="M27.5,12.2h1.2v37.2h-1.2V12.2"/>
	<path class="st0" d="M29.3,12.2h1v37.2h-1V12.2"/>
	<path class="st0" d="M12.6,12.2h1.2v37.2h-1.2V12.2"/>
	<path class="st0" d="M9.9,12.2h2.2v37.2H9.9V12.2"/>
	<path class="st0" d="M36.8,12.2h4v37.2h-4V12.2"/>
	<path class="st0" d="M42,12.2h1.2v37.2H42V12.2"/>
	<path class="st0" d="M44.3,12.2h2.2v37.2h-2.2V12.2"/>
	<path class="st0" d="M48.7,12.2h1.2v37.2h-1.2V12.2"/>
	<path class="st0" d="M50.4,12.2h1v37.2h-1V12.2"/>
	<path class="st0" d="M33.8,12.2H35v37.2h-1.2V12.2"/>
	<path class="st0" d="M31.1,12.2h2.2v37.2h-2.2V12.2"/>
	<path class="st0" d="M53,12.2h2.2v37.2H53V12.2"/>
	<path class="st0" d="M57.3,12.2h1.2v37.2h-1.2V12.2"/>
	<path class="st0" d="M59.1,12.2H60v37.2h-0.9V12.2"/>
	<path class="st0" d="M63.6,12.2h1.2v37.2h-1.2V12.2"/>
	<path class="st0" d="M60.8,12.2h2.2v37.2h-2.2V12.2"/>
	<path class="st0" d="M66.4,12.2h1.2v37.2h-1.2V12.2"/>
	<path class="st0" d="M68.2,12.2h1v37.2h-1V12.2"/>
	<path class="st0" d="M72.7,12.2H74v37.2h-1.2V12.2"/>
	<path class="st0" d="M70,12.2h2.2v37.2H70V12.2"/>
	<path class="st0" d="M75,12.2h4v37.2h-4V12.2"/>
	<path class="st0" d="M80.3,12.2h1.2v37.2h-1.2V12.2"/>
	<path class="st0" d="M82.6,12.2h2.2v37.2h-2.2V12.2"/>
	<path class="st0" d="M86.9,12.2h1.2v37.2h-1.2V12.2"/>
	<path class="st0" d="M88.7,12.2h1v37.2h-1V12.2"/>
	<path class="st0" d="M91.2,12.2h2.2v37.2h-2.2V12.2"/>
	<path class="st1" d="M14.4,49.5h76.2V28.6H14.4V49.5"/>
	<path class="st2" d="M15.8,48.7V29.8h7.1c1.4,0,2.6,0.2,3.5,0.6c0.9,0.4,1.6,1,2,1.8c0.5,0.8,0.7,1.6,0.7,2.5
		c0,0.8-0.2,1.6-0.7,2.3c-0.4,0.7-1.1,1.3-2,1.7c1.1,0.3,2,0.9,2.6,1.7c0.6,0.8,0.9,1.8,0.9,2.9c0,0.9-0.2,1.7-0.6,2.5
		c-0.4,0.8-0.8,1.3-1.4,1.8c-0.5,0.4-1.2,0.7-2.1,0.9c-0.8,0.2-1.8,0.3-3.1,0.3H15.8z M18.3,37.7h4.1c1.1,0,1.9-0.1,2.4-0.2
		c0.6-0.2,1.1-0.5,1.4-0.9c0.3-0.4,0.5-1,0.5-1.7c0-0.6-0.1-1.2-0.5-1.7c-0.3-0.5-0.7-0.8-1.3-1c-0.6-0.2-1.5-0.3-2.9-0.3h-3.8V37.7
		z M18.3,46.5H23c0.8,0,1.4,0,1.7-0.1c0.6-0.1,1.1-0.3,1.4-0.5c0.4-0.2,0.7-0.6,1-1.1c0.3-0.5,0.4-1,0.4-1.6c0-0.7-0.2-1.3-0.5-1.8
		c-0.4-0.5-0.9-0.9-1.5-1.1c-0.6-0.2-1.6-0.3-2.8-0.3h-4.4V46.5"/>
	<path class="st2" d="M32.4,41.8c0-2.5,0.7-4.4,2.1-5.6c1.2-1,2.6-1.5,4.3-1.5c1.9,0,3.4,0.6,4.6,1.8c1.2,1.2,1.8,2.9,1.8,5.1
		c0,1.8-0.3,3.1-0.8,4.1c-0.5,1-1.3,1.8-2.3,2.3c-1,0.6-2.1,0.8-3.3,0.8c-1.9,0-3.5-0.6-4.6-1.8C32.9,45.9,32.4,44.1,32.4,41.8z
		 M34.7,41.8c0,1.8,0.4,3.1,1.1,3.9c0.8,0.9,1.7,1.3,2.9,1.3c1.2,0,2.1-0.4,2.9-1.3c0.8-0.9,1.1-2.2,1.1-4c0-1.7-0.4-3-1.2-3.8
		c-0.8-0.9-1.7-1.3-2.9-1.3c-1.2,0-2.1,0.4-2.9,1.3C35.1,38.8,34.7,40.1,34.7,41.8"/>
	<path class="st2" d="M47.8,48.7V29.8h2.3v18.9H47.8"/>
	<path class="st2" d="M63.1,44.2l2.4,0.3c-0.4,1.4-1.1,2.5-2.1,3.2c-1,0.8-2.3,1.2-3.9,1.2c-2,0-3.6-0.6-4.7-1.8
		c-1.2-1.2-1.8-3-1.8-5.2c0-2.3,0.6-4.1,1.8-5.3c1.2-1.3,2.7-1.9,4.6-1.9c1.8,0,3.3,0.6,4.5,1.9c1.2,1.2,1.7,3,1.7,5.2
		c0,0.1,0,0.3,0,0.6H55.4c0.1,1.5,0.5,2.6,1.3,3.4c0.8,0.8,1.7,1.2,2.9,1.2c0.9,0,1.6-0.2,2.2-0.7C62.3,46,62.7,45.2,63.1,44.2z
		 M55.5,40.5h7.6c-0.1-1.2-0.4-2-0.9-2.6c-0.7-0.9-1.7-1.3-2.9-1.3c-1.1,0-2,0.4-2.7,1.1C56,38.4,55.6,39.3,55.5,40.5"/>
	<path class="st2" d="M73.5,46.6l0.3,2c-0.7,0.1-1.2,0.2-1.7,0.2c-0.8,0-1.5-0.1-2-0.4c-0.5-0.3-0.8-0.6-1-1.1
		c-0.2-0.4-0.3-1.4-0.3-2.7v-7.9h-1.7V35h1.7v-3.4l2.3-1.4V35h2.3v1.8h-2.3v8c0,0.7,0,1.1,0.1,1.3c0.1,0.2,0.2,0.3,0.4,0.5
		c0.2,0.1,0.4,0.2,0.8,0.2C72.7,46.7,73,46.7,73.5,46.6"/>
	<path class="st2" d="M74.9,41.8c0-2.5,0.7-4.4,2.1-5.6c1.2-1,2.6-1.5,4.3-1.5c1.9,0,3.4,0.6,4.6,1.8c1.2,1.2,1.8,2.9,1.8,5.1
		c0,1.8-0.3,3.1-0.8,4.1c-0.5,1-1.3,1.8-2.3,2.3c-1,0.6-2.1,0.8-3.3,0.8c-1.9,0-3.5-0.6-4.6-1.8C75.5,45.9,74.9,44.1,74.9,41.8z
		 M77.3,41.8c0,1.8,0.4,3.1,1.1,3.9c0.8,0.9,1.7,1.3,2.9,1.3c1.2,0,2.1-0.4,2.9-1.3c0.8-0.9,1.1-2.2,1.1-4c0-1.7-0.4-3-1.2-3.8
		c-0.8-0.9-1.7-1.3-2.9-1.3c-1.2,0-2.1,0.4-2.9,1.3C77.6,38.8,77.3,40.1,77.3,41.8"/>
</g>
</svg>
