<?xml version="1.0" encoding="utf-8"?>
<!-- Generator: Adobe Illustrator 25.2.1, SVG Export Plug-In . SVG Version: 6.00 Build 0)  -->
<svg version="1.1"
	 id="svg2985" xmlns:cc="http://creativecommons.org/ns#" xmlns:dc="http://purl.org/dc/elements/1.1/" xmlns:inkscape="http://www.inkscape.org/namespaces/inkscape" xmlns:rdf="http://www.w3.org/1999/02/22-rdf-syntax-ns#" xmlns:sodipodi="http://sodipodi.sourceforge.net/DTD/sodipodi-0.dtd" xmlns:svg="http://www.w3.org/2000/svg"
	 xmlns="http://www.w3.org/2000/svg" xmlns:xlink="http://www.w3.org/1999/xlink" x="0px" y="0px" viewBox="0 0 100 60"
	 style="enable-background:new 0 0 100 60;" xml:space="preserve">
<style type="text/css">
	.st0{fill-rule:evenodd;clip-rule:evenodd;fill:#F79F1A;}
	.st1{fill-rule:evenodd;clip-rule:evenodd;fill:#EA001B;}
	.st2{fill-rule:evenodd;clip-rule:evenodd;fill:#FF5F01;}
	.st3{fill:#F79F1A;}
</style>
<g id="g3125" transform="matrix(1.2152823,0,0,1.2152823,-67.025868,-37.711623)">
	<g id="g3115">
		<g id="g3110">
			<path id="path2997" class="st0" d="M117.8,52.8c0,7.2-5.9,13.1-13.1,13.1S91.6,60,91.6,52.8s5.9-13.1,13.1-13.1
				S117.8,45.5,117.8,52.8L117.8,52.8z"/>
			<path id="path2995" class="st1" d="M101.6,52.8c0,7.2-5.9,13.1-13.1,13.1c-7.2,0-13.1-5.9-13.1-13.1s5.9-13.1,13.1-13.1
				C95.8,39.6,101.6,45.5,101.6,52.8L101.6,52.8z"/>
			<path id="path2999" class="st2" d="M96.6,42.4c-3.1,2.4-5,6.1-5,10.3s2,7.9,5,10.3c3.1-2.4,5-6.1,5-10.3S99.7,44.8,96.6,42.4z"/>
		</g>
		<g id="g3043" transform="matrix(1.2704171,0,0,1.2704171,507.53053,240.70315)">
			<g id="text3045">
				<path id="path3057" class="st3" d="M-306.8-142.5v-0.4h-0.1l-0.1,0.3l-0.1-0.3h-0.1v0.4h0.1v-0.3l0.1,0.2h0.1l0.1-0.2
					L-306.8-142.5L-306.8-142.5z M-307.4-142.5v-0.3h0.1v-0.1h-0.3v0.1h0.1L-307.4-142.5L-307.4-142.5z"/>
			</g>
			<g id="text3047">
			</g>
		</g>
	</g>
	<g id="g3093">
		<g id="g3081">
			<path id="path3006" d="M78.4,72.4h-0.7v-3.5h0.7v0.4c0,0,0.6-0.5,1-0.5c0.7,0,1.2,0.6,1.2,0.6s0.4-0.6,1.2-0.6
				c1.2,0,1.4,1.1,1.4,1.1v2.4h-0.7v-2.2c0,0,0-0.7-0.8-0.7c-0.8,0-0.9,0.7-0.9,0.7v2.2H80v-2.2c0,0-0.1-0.7-0.7-0.7
				c-0.9,0-0.9,0.7-0.9,0.7L78.4,72.4z"/>
			<path id="path3008" d="M100.9,68.8c-0.4,0-1,0.5-1,0.5v-0.4h-0.7v3.5h0.7l0-2.2c0,0,0-0.7,0.9-0.7c0.2,0,0.3,0,0.4,0.1v0l0.2-0.7
				C101.3,68.8,101.1,68.8,100.9,68.8z"/>
			<path id="path3013" d="M111.4,68.8c-0.4,0-1,0.5-1,0.5v-0.4h-0.7v3.5h0.7l0-2.2c0,0,0-0.7,0.9-0.7c0.2,0,0.3,0,0.4,0.1v0l0.2-0.7
				C111.8,68.8,111.6,68.8,111.4,68.8L111.4,68.8z"/>
			<path id="path3015" d="M85.5,68.8c-1.1,0-1.7,1-1.7,1.8c0,0.9,0.7,1.8,1.7,1.8c0.6,0,1.1-0.5,1.1-0.5l0,0.4h0.7v-3.5h-0.7v0.4
				C86.6,69.3,86.2,68.8,85.5,68.8L85.5,68.8z M85.6,69.5c0.6,0,1.1,0.5,1.1,1.2s-0.5,1.2-1.1,1.2c-0.6,0-1.1-0.5-1.1-1.2
				S85,69.5,85.6,69.5z"/>
			<path id="path3020" d="M106.8,68.8c-1.1,0-1.7,1-1.7,1.8c0,0.9,0.7,1.8,1.7,1.8c0.6,0,1.1-0.5,1.1-0.5l0,0.4h0.7v-3.5H108v0.4
				C108,69.3,107.5,68.8,106.8,68.8L106.8,68.8z M106.9,69.5c0.6,0,1.1,0.5,1.1,1.2s-0.5,1.2-1.1,1.2c-0.6,0-1.1-0.5-1.1-1.2
				S106.3,69.5,106.9,69.5z"/>
			<path id="path3022" d="M113.8,68.8c-1.1,0-1.7,1-1.7,1.8c0,0.9,0.7,1.8,1.7,1.8c0.6,0,1.1-0.5,1.1-0.5l0,0.4h0.7v-4.8H115v1.8
				C115,69.3,114.5,68.8,113.8,68.8L113.8,68.8z M114,69.5c0.6,0,1.1,0.5,1.1,1.2s-0.5,1.2-1.1,1.2c-0.6,0-1.1-0.5-1.1-1.2
				S113.4,69.5,114,69.5z"/>
			<path id="path3024" d="M89.6,72.5c-0.8,0-1.5-0.5-1.5-0.5l0.3-0.5c0,0,0.7,0.3,1.1,0.3c0.3,0,0.8-0.1,0.8-0.4
				c0-0.3-0.9-0.4-0.9-0.4s-1.3,0-1.3-1.1c0-0.7,0.7-1.1,1.5-1.1c0.5,0,1.4,0.4,1.4,0.4l-0.4,0.6c0,0-0.7-0.3-1.1-0.3
				c-0.3,0-0.7,0.1-0.7,0.4c0,0.7,2.2-0.1,2.2,1.4C91.2,72.3,90.3,72.5,89.6,72.5L89.6,72.5z"/>
			<path id="path3026" d="M92.4,67.9v1h-0.6v0.7h0.6v1.7c0,0-0.1,1.2,1.2,1.2c0.4,0,1-0.3,1-0.3l-0.3-0.8c0,0-0.3,0.2-0.6,0.2
				c-0.6,0-0.6-0.4-0.6-0.4v-1.7h1.2v-0.7h-1.2v-1H92.4z"/>
			<path id="path3034" d="M96.8,68.8c-1.2,0-1.8,1-1.8,1.8c0,0.9,0.5,1.9,1.9,1.9c0.6,0,1.3-0.5,1.3-0.5l-0.3-0.6c0,0-0.5,0.4-1,0.4
				c-0.9,0-1-0.9-1-0.9h2.5C98.4,70.9,98.6,68.8,96.8,68.8z M96.7,69.5C96.7,69.5,96.7,69.5,96.7,69.5c1,0,1,0.8,1,0.8h-1.8
				C95.9,70.4,95.8,69.6,96.7,69.5z"/>
			<path id="path3037" d="M104.3,71.4l0.3,0.7c0,0-0.5,0.4-1.1,0.4c-1.3,0-1.9-0.9-1.9-1.8c0-1.4,1.1-1.8,1.9-1.8
				c0.7,0,1.3,0.4,1.3,0.4l-0.4,0.7c0,0-0.2-0.4-0.9-0.4c-0.7,0-1,0.6-1,1.1c0,0.6,0.4,1.1,1,1.1C103.9,71.8,104.3,71.4,104.3,71.4
				L104.3,71.4z"/>
		</g>
		<g id="g3064" transform="matrix(1.3613136,0,0,1.3613136,509.49268,379.29888)">
			<g id="text3066">
				<path id="path3078" d="M-288.1-225.8c-0.1,0-0.1,0-0.2,0.1c0,0-0.1,0.1-0.1,0.2c0,0.1,0,0.1,0.1,0.2c0,0,0.1,0.1,0.2,0.1
					c0.1,0,0.1,0,0.2-0.1c0,0,0.1-0.1,0.1-0.2c0-0.1,0-0.1-0.1-0.2C-288-225.8-288.1-225.8-288.1-225.8z M-288.1-225.4
					c-0.1,0-0.1,0-0.1-0.1c0,0-0.1-0.1-0.1-0.1c0-0.1,0-0.1,0.1-0.1c0,0,0.1-0.1,0.1-0.1c0.1,0,0.1,0,0.1,0.1c0,0,0.1,0.1,0.1,0.1
					c0,0.1,0,0.1-0.1,0.1C-288-225.4-288.1-225.4-288.1-225.4z M-288.1-225.7h-0.1v0.2h0.1v-0.1h0l0.1,0.1h0.1l-0.1-0.1
					c0,0,0,0,0.1,0C-288-225.6-288-225.6-288.1-225.7C-288-225.6-288-225.7-288.1-225.7C-288.1-225.7-288.1-225.7-288.1-225.7z
					 M-288.1-225.6C-288.1-225.6-288.1-225.6-288.1-225.6C-288.1-225.6-288.1-225.6-288.1-225.6
					C-288.1-225.6-288.1-225.6-288.1-225.6C-288.1-225.6-288.1-225.6-288.1-225.6L-288.1-225.6L-288.1-225.6L-288.1-225.6z"/>
			</g>
			<g id="text3068">
			</g>
		</g>
	</g>
</g>
</svg>
