<?xml version="1.0" encoding="utf-8"?>
<!-- Generator: Adobe Illustrator 26.1.0, SVG Export Plug-In . SVG Version: 6.00 Build 0)  -->
<svg version="1.1" id="Layer_1" xmlns="http://www.w3.org/2000/svg" xmlns:xlink="http://www.w3.org/1999/xlink" x="0px" y="0px"
	 viewBox="0 0 100 60" style="enable-background:new 0 0 100 60;" xml:space="preserve">
<style type="text/css">
	.st0{fill:#28316B;}
	.st1{fill:#50B4E9;}
	.st2{fill:#FFFFFF;}
</style>
<g id="layer1" transform="translate(-14.48 -12.468)">
	<g>
		<g id="g1222" transform="matrix(2.447 0 0 -2.447 79.174 33.624)">
			<path id="path1224" class="st0" d="M1.8,2.2c0,2.7-3.4,5-7.6,5s-7.6-2.2-7.6-5V1.9c0-2.9,3-5.3,7.6-5.3C-1.2-3.3,1.8-1,1.8,1.9
				V2.2L1.8,2.2z"/>
		</g>
		<g id="g1226" transform="matrix(2.447 0 0 -2.447 77.933 33.615)">
			<path id="path1228" class="st1" d="M2,2.2c0-2.6-3.3-4.7-7.3-4.7s-7.3,2.1-7.3,4.7s3.3,4.7,7.3,4.7S2,4.8,2,2.2"/>
		</g>
		<g id="g1230" transform="matrix(2.447 0 0 -2.447 36.507 27.337)">
			<path id="path1232" class="st2" d="M9.2,1.1c0,0-0.1-0.1,0-0.1c0-0.2,0.4-0.2,0.8-0.2c0.2,0.1,0.5,0.3,0.8,0.5s0.6,0.5,0.9,0.5
				c0.3,0.1,0.5,0.1,0.6,0c0.1,0,0.3-0.1,0.6-0.3c0.5-0.4,2.5-2.1,2.9-2.4c0.3,0.1,1.5,0.7,3.2,1c-0.1,0.9-0.7,1.7-1.5,2.4
				c-1.1-0.5-2.6-0.7-4-0.1c0,0-0.8,0.4-1.5,0.3c-1.2,0.1-1.7-0.4-2.2-0.9L9.2,1.1z"/>
		</g>
		<g id="g1234" transform="matrix(2.447 0 0 -2.447 63.741 36.74)">
			<path id="path1236" class="st2" d="M4.4,2.8c0,0-2.4,2.1-2.9,2.5C1.2,5.5,1.1,5.5,0.9,5.6c-0.1,0-0.2,0-0.3,0
				C0.3,5.5,0,5.2-0.3,5c-0.3-0.2-0.6-0.4-0.8-0.5c-0.3-0.1-0.7,0-0.9,0.1c-0.1,0.1-0.2,0.2-0.2,0.2C-2.3,5-2.1,5.1-2.1,5.1l0.6,0.7
				L-1.3,6c-0.2,0-0.4-0.1-0.6-0.1c-0.2-0.1-0.4-0.1-0.6-0.1c-0.1,0-0.6,0.1-0.7,0.1c-0.6,0.2-1.1,0.3-1.9,0.7
				C-6,5.9-6.6,5.1-6.8,4.1C-6.7,4.1-6.5,4-6.4,4c2.1-0.5,2.7-0.9,2.8-1C-3.4,3.1-3.2,3.1-3,3.1S-2.6,3-2.4,2.8
				C-2.3,2.9-2.2,3-1.9,3c0.1,0,0.2,0,0.3-0.1c0.2,0,0.3-0.2,0.4-0.3c0.1,0,0.2,0.1,0.3,0.1s0.2,0,0.3-0.1c0.4-0.2,0.4-0.5,0.4-0.8
				h0.1c0.5,0,0.8-0.4,0.8-0.8c0-0.1,0-0.3-0.1-0.4C0.7,0.5,1,0.4,1.3,0.4c0.2,0,0.3,0.1,0.3,0.1v0.1L1.1,1.2L1,1.3
				c0,0,0.1,0,0.1-0.1c0.4-0.1,0.7-0.5,0.7-0.5s0-0.1,0.2-0.1c0.1,0,0.3,0,0.5,0.1c0,0.1,0,0.1,0.1,0.1l0,0c0.2,0.2,0,0.4,0,0.4
				L1.9,2L1.8,2.1c0,0,0.1,0,0.1-0.1c0.2-0.2,0.5-0.5,0.8-0.8c0.1,0,0.3-0.2,0.7,0c0.2,0.1,0.2,0.3,0.2,0.4c0,0.2-0.1,0.3-0.1,0.3
				L2.6,3L2.5,3.1c0,0,0.1,0,0.1-0.1c0.3-0.2,1.2-0.9,1.2-0.9s0.3-0.2,0.6,0c0.1,0.1,0.2,0.2,0.2,0.3C4.6,2.6,4.4,2.8,4.4,2.8"/>
		</g>
		<g id="g1238" transform="matrix(2.447 0 0 -2.447 44.44 41.811)">
			<path id="path1240" class="st2" d="M7.8,3.6c-0.1,0-0.3-0.1-0.3-0.1v0.1c0,0,0.2,0.6-0.3,0.8c-0.4,0.2-0.6,0-0.7-0.1l0,0
				c0,0.1-0.1,0.4-0.4,0.5C5.7,5,5.5,4.7,5.4,4.6C5.4,4.9,5.2,5,4.9,5C4.6,5,4.4,4.8,4.4,4.5S4.6,4,4.9,4C5,4,5.2,4.1,5.3,4.1l0,0
				c0-0.1-0.1-0.6,0.4-0.8c0.2-0.1,0.4,0,0.5,0.1c0,0,0.1,0,0,0c0-0.1,0-0.4,0.4-0.5C6.8,2.8,7,2.9,7.1,3h0.1c0-0.3,0.3-0.6,0.6-0.6
				c0.4,0,0.6,0.3,0.6,0.6C8.4,3.4,8.1,3.6,7.8,3.6"/>
		</g>
		<g id="g1242" transform="matrix(2.447 0 0 -2.447 44.44 47.076)">
			<path id="path1244" class="st0" d="M7.8,4.6c-0.3,0-0.6,0.2-0.6,0.5c0,0,0,0.1-0.1,0.1H7c0-0.1-0.1-0.1-0.2-0.1s-0.1,0-0.2,0
				C6.2,5.2,6.2,5.5,6.2,5.6v0.1l0,0l0,0c0,0,0,0-0.1,0C6,5.6,5.9,5.5,5.8,5.5s-0.1,0-0.2,0C5.2,5.7,5.3,6.2,5.3,6.3c0,0,0,0,0,0.1
				l0,0l0,0C5.1,6.3,5,6.2,4.9,6.2c-0.3,0-0.5,0.2-0.5,0.5s0.2,0.5,0.5,0.5c0.2,0,0.4-0.2,0.5-0.4V6.7l0.1,0.1c0,0,0.2,0.3,0.5,0.3
				c0.1,0,0.1,0,0.2,0C6.5,7,6.5,6.8,6.5,6.7s0.1-0.1,0.1-0.1s0,0,0.1,0c0,0,0.1,0.1,0.3,0.1c0.1,0,0.2,0,0.3-0.1
				c0.3-0.2,0.1-0.7,0.1-0.8s0-0.1,0-0.2l0,0l0,0c0,0,0,0,0.1,0c0.1,0.1,0.2,0.2,0.3,0.2c0.3,0,0.6-0.3,0.6-0.6
				C8.4,4.8,8.1,4.6,7.8,4.6 M12.4,7.2C11.7,7.8,10,9.3,9.6,9.6C9.3,9.8,9.2,9.9,9,9.9c-0.1,0-0.2,0-0.3,0s-0.2,0-0.4-0.1
				C8,9.7,7.7,9.5,7.4,9.3l0,0C7.2,9.2,6.9,9,6.7,9C6.6,9,6.5,9,6.4,9C6.2,9,6,9.1,5.9,9.2c0,0,0,0,0,0.1l0,0L6.5,10
				c0.5,0.5,1,1,2,1h0.1c0.7,0,1.3-0.3,1.4-0.3c0.6-0.3,1.3-0.5,1.9-0.5c0.7,0,1.4,0.2,2.1,0.5c-0.1,0.1-0.2,0.1-0.3,0.2
				c-0.6-0.3-1.3-0.4-1.9-0.4c-0.6,0-1.2,0.2-1.8,0.4c0,0-0.8,0.4-1.5,0.4h0.1c-0.9,0-1.4-0.3-1.8-0.6c-0.3,0-0.6-0.1-0.9-0.2
				c-0.2-0.1-0.4-0.1-0.6-0.1c-0.1,0-0.2,0-0.2,0c-0.2,0-1.3,0.3-2.2,0.6c-0.1-0.2-0.2-0.3-0.3-0.3C3.5,10.3,4.7,10,5,10
				c0.1,0,0.2,0,0.3,0c0.2,0,0.5,0.1,0.7,0.1c0.1,0,0.3,0.1,0.4,0.1l-0.1-0.1L5.7,9.4c0-0.1-0.1-0.2,0-0.4c0-0.1,0-0.1,0.1-0.2
				C6,8.7,6.2,8.6,6.5,8.6c0.1,0,0.2,0,0.3,0c0.3,0.1,0.5,0.3,0.9,0.5c0.2,0.2,0.6,0.4,0.8,0.5c0.1,0,0.2,0,0.2,0h0.1
				c0.2,0,0.3-0.1,0.6-0.3c0.5-0.4,2.9-2.4,2.9-2.5c0,0,0.2-0.1,0.1-0.3c0-0.1-0.1-0.2-0.2-0.3c-0.1-0.1-0.2-0.1-0.3-0.1
				c-0.2,0-0.3,0.1-0.3,0.1s-0.8,0.7-1.1,1c-0.1,0-0.1,0.1-0.1,0.1h-0.1c-0.1-0.1,0-0.1,0.1-0.2l0.9-0.9c0,0,0.1-0.1,0.1-0.3
				c0-0.2-0.1-0.3-0.2-0.4c-0.1-0.1-0.2-0.1-0.3-0.1s-0.2,0.1-0.3,0.1l-0.1,0.1C10.3,5.8,10,6.1,9.8,6.3c0,0,0,0.1-0.1,0.1
				c0,0,0,0-0.1,0V6.3l0.1-0.1l0.7-0.8c0,0,0.1-0.2,0-0.3l0,0L10.3,5C10.2,4.9,10,4.9,10,4.9H9.9c-0.1,0-0.1,0-0.1,0.1l0,0
				c0,0-0.4,0.4-0.7,0.6L9,5.7c0,0,0,0-0.1,0C8.8,5.6,8.9,5.5,9,5.4l0.5-0.6l0,0c0,0-0.1-0.1-0.3-0.1H9.1c-0.2-0.1-0.4,0-0.5,0.1
				C8.7,4.9,8.7,5,8.7,5.2c0,0.5-0.4,0.9-0.9,0.9l0,0c0,0.2,0,0.6-0.4,0.8C7.2,6.9,7.1,7,6.9,7C6.8,7,6.8,6.9,6.7,6.9
				C6.6,7.1,6.4,7.2,6.2,7.3c-0.1,0-0.2,0-0.3,0c-0.1,0-0.3-0.1-0.5-0.2C5.3,7.3,5.1,7.4,4.9,7.4c-0.2,0-0.4-0.1-0.5-0.2
				c-0.2,0.1-0.9,0.6-2.9,1c-0.1,0-0.3,0.1-0.4,0.1c0-0.1,0-0.2-0.1-0.3l0.4-0.1c2-0.4,2.6-0.9,2.7-1C4.1,6.8,4,6.7,4,6.6
				c0-0.4,0.3-0.7,0.7-0.7h0.1c0.1-0.3,0.3-0.5,0.6-0.6c0.3,0,0.4,0,0.4,0c0.1,0,0.1,0,0.2,0C6.1,5.2,6.2,5,6.5,4.9
				c0.1-0.1,0.2-0.1,0.3-0.1s0.2,0,0.2,0c0.1-0.3,0.4-0.5,0.8-0.5c0.2,0,0.5,0.1,0.6,0.3c0.1-0.1,0.4-0.2,0.7-0.2h0.1
				c0.3,0,0.4,0.2,0.5,0.2c0,0,0,0,0,0.1c0.1,0,0.1,0,0.2,0c0.2,0,0.3,0.1,0.5,0.2c0.3,0,0.4,0.2,0.4,0.3l0,0c0.1,0,0.1,0,0.2,0
				c0.2,0,0.3,0.1,0.5,0.2s0.3,0.4,0.3,0.6c0.1,0,0.1,0,0.2,0c0.2,0,0.3,0.1,0.5,0.1c0.2,0.1,0.3,0.3,0.3,0.5c0,0.1,0,0.3-0.1,0.4
				c0.5,0.2,1.7,0.6,3,1c0,0.1,0,0.2,0,0.3C14,7.9,12.7,7.4,12.4,7.2"/>
		</g>
	</g>
	<g>
		<g id="g1246" transform="matrix(2.447 0 0 -2.447 186.497 28.537)">
			<path id="path1248" class="st0" d="M-38.7-9.8c-0.1-0.2-0.3-0.3-0.6-0.3c-0.2,0-0.4,0.1-0.6,0.3C-40-9.6-40.1-9.4-40.1-9
				s0.1,0.6,0.2,0.8s0.3,0.3,0.6,0.3s0.4-0.1,0.6-0.3c0.1-0.2,0.2-0.4,0.2-0.8S-38.6-9.7-38.7-9.8 M-38-7.9
				c-0.3,0.3-0.7,0.5-1.3,0.5s-1-0.2-1.3-0.5C-40.9-8.2-41-8.7-41-9.1c0-0.5,0.1-0.9,0.4-1.2c0.3-0.3,0.7-0.5,1.3-0.5s1,0.2,1.3,0.5
				s0.4,0.7,0.4,1.2C-37.6-8.6-37.8-8.2-38-7.9"/>
		</g>
		<g id="g1250" transform="matrix(2.447 0 0 -2.447 157.711 26.828)">
			<path id="path1252" class="st0" d="M-33.7-10.1c0-0.3-0.1-0.5-0.2-0.6c-0.2-0.1-0.3-0.2-0.5-0.2c-0.1,0-0.2,0-0.3,0.1
				s-0.1,0.2-0.1,0.3c0,0.2,0.1,0.3,0.2,0.4c0.1,0,0.2,0.1,0.4,0.1h0.2c0.1,0,0.2,0,0.2,0.1c0.1,0,0.1,0.1,0.2,0.1v-0.3H-33.7z
				 M-33.3-8.3c-0.3,0.1-0.6,0.2-1,0.2c-0.5,0-0.9-0.1-1.2-0.4c-0.1-0.2-0.2-0.4-0.2-0.7h0.8c0,0.1,0.1,0.2,0.1,0.3
				c0.1,0.1,0.2,0.2,0.4,0.2s0.3,0,0.4-0.1c0.1-0.1,0.1-0.1,0.1-0.3c0-0.1-0.1-0.2-0.2-0.2c-0.1,0-0.2-0.1-0.3-0.1h-0.3
				c-0.3,0-0.6-0.1-0.8-0.2c-0.3-0.2-0.5-0.5-0.5-0.9c0-0.3,0.1-0.5,0.3-0.7s0.4-0.2,0.7-0.3c1.9-0.1,1.8,1,1.9,1.2v1.2
				C-32.9-8.7-33-8.4-33.3-8.3"/>
		</g>
		<g id="g1254" transform="matrix(2.447 0 0 -2.447 141.493 21.122)">
			<path id="path1256" class="st0" d="M-30.9-11.1c0.2,0,0.4-0.1,0.5-0.2c0.1-0.1,0.1-0.2,0.1-0.3h0.9c-0.1,0.5-0.2,0.8-0.5,1
				s-0.6,0.3-1.1,0.3s-0.9-0.2-1.2-0.5s-0.4-0.7-0.4-1.3c0-0.5,0.1-0.9,0.4-1.2c0.3-0.3,0.7-0.5,1.2-0.5s1,0.2,1.3,0.6
				c0.2,0.2,0.3,0.5,0.3,0.7h-0.9c0-0.2-0.1-0.3-0.2-0.4c-0.1-0.1-0.2-0.2-0.4-0.2c-0.3,0-0.5,0.1-0.6,0.4c-0.1,0.1-0.1,0.3-0.1,0.6
				s0,0.4,0.1,0.6C-31.4-11.3-31.2-11.1-30.9-11.1"/>
		</g>
		<g id="g1258" transform="matrix(2.447 0 0 -2.447 133.442 18.063)">
			<path id="path1260" class="st0" d="M-29.5-11.7c-1.9,0-1.8-1.7-1.8-1.7v-1.7h0.9v1.6c0,0.3,0,0.5,0.1,0.6
				c0.1,0.2,0.3,0.3,0.7,0.3h0.1h0.1v0.9C-29.4-11.6-29.5-11.6-29.5-11.7L-29.5-11.7"/>
		</g>
		<g id="g1262" transform="matrix(2.447 0 0 -2.447 115.171 21.834)">
			<path id="path1264" class="st0" d="M-26.3-11c0.1,0.1,0.3,0.2,0.5,0.2s0.4-0.1,0.5-0.2c0.1-0.1,0.2-0.3,0.2-0.5h-1.5
				C-26.5-11.3-26.5-11.1-26.3-11 M-25.2-12.6c0-0.1-0.1-0.1-0.1-0.1c-0.1-0.1-0.3-0.1-0.5-0.1s-0.3,0-0.5,0.1s-0.3,0.4-0.3,0.7h2.4
				c0,0.3,0,0.5,0,0.7c0,0.3-0.1,0.5-0.3,0.7c-0.2,0.2-0.3,0.4-0.6,0.5s-0.5,0.2-0.8,0.2c-0.5,0-0.9-0.2-1.2-0.4
				c-0.3-0.3-0.4-0.7-0.4-1.3s0.2-1,0.5-1.3s0.7-0.4,1.1-0.4c0.5,0,0.9,0.2,1.2,0.5c0.2,0.2,0.3,0.3,0.3,0.5L-25.2-12.6L-25.2-12.6z
				"/>
		</g>
		<g id="g1266" transform="matrix(2.447 0 0 -2.447 109.013 32.384)">
			<path id="path1268" class="st0" d="M-25.3-9.2h-0.8v2c0,0.2-0.1,0.6-0.6,0.6c-0.3,0-0.5-0.2-0.5-0.6v-2H-28v2
				c0,0.2-0.1,0.6-0.6,0.6c-0.3,0-0.6-0.2-0.6-0.6v-2H-30v2c0,0.8,0.5,1.4,1.4,1.4c0.4,0,0.8-0.2,1-0.5c0.2,0.3,0.6,0.5,1,0.5
				c0.9,0,1.4-0.6,1.4-1.4v-2H-25.3z"/>
		</g>
		<g id="g1270" transform="matrix(2.447 0 0 -2.447 171.552 28.566)">
			<path id="path1272" class="st0" d="M-36.1-9.8c-0.1-0.2-0.3-0.3-0.5-0.3S-37-10-37.1-9.8s-0.2,0.4-0.2,0.7s0.1,0.5,0.2,0.7
				c0.1,0.2,0.3,0.3,0.5,0.3s0.3-0.1,0.4-0.2c0.2-0.2,0.3-0.5,0.3-0.9C-35.9-9.4-36-9.6-36.1-9.8 M-35.1-6.3c0,0-0.9,0.1-0.9-0.6
				v-0.9c-0.1,0.2-0.2,0.3-0.4,0.4s-0.3,0.1-0.5,0.1c-0.4,0-0.8-0.2-1-0.5c-0.3-0.3-0.4-0.8-0.4-1.3s0.1-0.9,0.4-1.2
				c0.3-0.3,0.8-0.4,1.2-0.4c1.6,0,1.6,1.4,1.6,1.4L-35.1-6.3L-35.1-6.3z"/>
		</g>
	</g>
	<g>
		<g id="g1274" transform="matrix(2.447 0 0 -2.447 98.857 45.644)">
			<path id="path1276" class="st1" d="M-18.2-6.9c0,0.3-0.1,0.6-0.2,0.7c-0.1,0.2-0.3,0.3-0.5,0.3s-0.4-0.1-0.5-0.3
				c-0.1-0.2-0.2-0.4-0.2-0.7c0-0.3,0.1-0.5,0.2-0.7s0.3-0.3,0.5-0.3s0.4,0.1,0.5,0.3C-18.2-7.4-18.2-7.2-18.2-6.9 M-19.6-9.2
				c0-0.1-0.1-0.2-0.1-0.3c-0.1-0.1-0.2-0.1-0.3-0.1h-0.4v3c0,0.6,0.2,0.9,0.5,1.2c0.2,0.2,0.6,0.3,1.3,0.3c0.4,0,0.7-0.2,0.9-0.5
				c0.3-0.3,0.4-0.7,0.4-1.2s-0.1-0.9-0.4-1.3c-0.3-0.3-0.6-0.5-1-0.5c-0.2,0-0.4,0-0.5,0.1c-0.2,0.1-0.3,0.2-0.4,0.4V-9.2
				L-19.6-9.2z"/>
		</g>
		<g id="g1278" transform="matrix(2.447 0 0 -2.447 120.682 45.647)">
			<path id="path1280" class="st1" d="M-22-6.9c0-0.6,0.2-0.9,0.5-0.9c0.3-0.1,0.6,0,0.7,0.2c0.1,0.1,0.1,0.2,0.2,0.4
				c0,0.2,0,0.4,0,0.6s-0.1,0.4-0.2,0.5c-0.1,0.2-0.3,0.2-0.5,0.2c-0.3,0-0.5-0.1-0.6-0.3C-21.9-6.4-22-6.6-22-6.9 M-20.6-8.3v0.2
				c-0.2-0.2-0.3-0.4-0.6-0.4c-0.3-0.1-0.5,0-0.8,0.1c-0.2,0.1-0.4,0.2-0.5,0.5c-0.2,0.3-0.3,0.6-0.3,1.1s0.1,0.9,0.4,1.3
				c0.2,0.3,0.6,0.5,1.1,0.5s0.8-0.1,1.1-0.3c0.3-0.2,0.5-0.6,0.5-1.2v-1.7c0-0.6-0.4-1.6-1.6-1.5c-0.8,0.1-1.2,0.4-1.4,1.1h0.9
				c0.1-0.1,0.2-0.2,0.3-0.3C-21.4-9-21.2-9-21.1-9s0.3,0.1,0.4,0.2C-20.6-8.8-20.6-8.6-20.6-8.3"/>
		</g>
		<g id="g1282" transform="matrix(2.447 0 0 -2.447 112.153 47.114)">
			<path id="path1284" class="st1" d="M-20.5-6.6c0-0.3-0.1-0.5-0.2-0.6c-0.2-0.1-0.3-0.2-0.5-0.2c-0.1,0-0.2,0-0.3,0.1
				c-0.1,0.1-0.1,0.2-0.1,0.3c0,0.2,0.1,0.3,0.2,0.4c0.1,0,0.2,0.1,0.4,0.1h0.2c0.1,0,0.2,0,0.2,0.1c0.1,0,0.1,0.1,0.2,0.1
				L-20.5-6.6L-20.5-6.6z M-20-4.7c-0.3,0.1-0.6,0.2-1,0.2c-0.5,0-0.9-0.1-1.2-0.4c-0.1-0.2-0.2-0.4-0.2-0.7h0.8
				c0,0.1,0.1,0.2,0.1,0.3c0.1,0,0.3,0.1,0.5,0.1s0.3,0,0.4-0.1s0.1-0.1,0.1-0.3c0-0.1-0.1-0.2-0.2-0.2s-0.2-0.1-0.3-0.1h-0.3
				c-0.3,0-0.6-0.1-0.8-0.2c-0.3-0.2-0.5-0.5-0.5-0.9c0-0.3,0.1-0.5,0.3-0.7c0.2-0.2,0.4-0.2,0.7-0.3c1.9-0.1,1.8,1,1.9,1.2v1.2
				C-19.6-5.2-19.8-4.9-20-4.7"/>
		</g>
		<g id="g1286" transform="matrix(2.447 0 0 -2.447 141.132 48.744)">
			<path id="path1288" class="st1" d="M-25.5-6.3c-0.1-0.2-0.3-0.3-0.6-0.3c-0.2,0-0.4,0.1-0.6,0.3c-0.1,0.2-0.2,0.4-0.2,0.8
				s0.1,0.6,0.2,0.8c0.1,0.2,0.3,0.3,0.6,0.3c0.3,0,0.4-0.1,0.6-0.3c0.1-0.2,0.2-0.4,0.2-0.8C-25.3-5.9-25.4-6.2-25.5-6.3
				 M-24.8-4.4c-0.3,0.3-0.7,0.5-1.3,0.5s-1-0.2-1.3-0.5s-0.4-0.8-0.4-1.2c0-0.5,0.1-0.9,0.4-1.2c0.3-0.3,0.7-0.5,1.3-0.5
				s1,0.2,1.3,0.5c0.3,0.3,0.4,0.7,0.4,1.2S-24.6-4.7-24.8-4.4"/>
		</g>
	</g>
</g>
</svg>
