<?xml version="1.0" encoding="utf-8"?>
<!-- Generator: Adobe Illustrator 25.2.1, SVG Export Plug-In . SVG Version: 6.00 Build 0)  -->
<svg version="1.1" id="Layer_1" xmlns="http://www.w3.org/2000/svg" xmlns:xlink="http://www.w3.org/1999/xlink" x="0px" y="0px"
	 viewBox="0 0 100 60" style="enable-background:new 0 0 100 60;" xml:space="preserve">
<style type="text/css">
	.st0{fill-rule:evenodd;clip-rule:evenodd;fill:#FFFFFF;}
	.st1{clip-path:url(#SVGID_3_);fill:#FFFFFF;stroke:#CBCBCB;stroke-width:2;stroke-miterlimit:10;}
	.st2{clip-path:url(#SVGID_5_);fill:#F7B600;}
	.st3{clip-path:url(#SVGID_7_);fill:#1A1F71;}
	.st4{clip-path:url(#SVGID_9_);fill:#1A1F71;}
</style>
<g>
	<g>
		<path id="SVGID_1_" class="st0" d="M13.8,12.8c0-1.8,1.5-3.3,3.3-3.3h64.7c1.8,0,3.3,1.5,3.3,3.3v36.9c0,1.8-1.5,3.3-3.3,3.3H17.2
			c-1.8,0-3.3-1.5-3.3-3.3V12.8z"/>
	</g>
	<g>
		<g>
			<defs>
				<path id="SVGID_2_" d="M13.8,12.8c0-1.8,1.5-3.3,3.3-3.3h64.7c1.8,0,3.3,1.5,3.3,3.3v36.9c0,1.8-1.5,3.3-3.3,3.3H17.2
					c-1.8,0-3.3-1.5-3.3-3.3V12.8z"/>
			</defs>
			<clipPath id="SVGID_3_">
				<use xlink:href="#SVGID_2_"  style="overflow:visible;"/>
			</clipPath>
			<path class="st1" d="M13.8,12.8c0-1.8,1.5-3.3,3.3-3.3h64.7c1.8,0,3.3,1.5,3.3,3.3v36.9c0,1.8-1.5,3.3-3.3,3.3H17.2
				c-1.8,0-3.3-1.5-3.3-3.3V12.8z"/>
		</g>
	</g>
</g>
<g>
	<g>
		<g>
			<defs>
				<rect id="SVGID_4_" x="16.8" y="44.2" width="65.4" height="5.8"/>
			</defs>
			<clipPath id="SVGID_5_">
				<use xlink:href="#SVGID_4_"  style="overflow:visible;"/>
			</clipPath>
			<rect x="14" y="41.5" class="st2" width="71" height="11.2"/>
		</g>
	</g>
</g>
<g>
	<g>
		<g>
			<defs>
				<rect id="SVGID_6_" x="16.8" y="12.4" width="65.4" height="5.8"/>
			</defs>
			<clipPath id="SVGID_7_">
				<use xlink:href="#SVGID_6_"  style="overflow:visible;"/>
			</clipPath>
			<rect x="14" y="9.7" class="st3" width="71" height="11.2"/>
		</g>
	</g>
</g>
<g>
	<g>
		<g>
			<defs>
				<path id="SVGID_8_" d="M49.6,23.6l-3.4,15.6h-4.1l3.4-15.6C45.5,23.6,49.6,23.6,49.6,23.6z M67.2,33.6l2.2-5.9l1.3,5.9H67.2z
					 M71.8,39.2h3.8l-3.3-15.6h-3.6c-0.8,0-1.5,0.4-1.8,1.1l-6.2,14.4H65l0.8-2.3h5.4L71.8,39.2z M61,34.1c0-4.1-5.9-4.3-5.8-6.2
					c0-0.6,0.6-1.1,1.8-1.3c1.4-0.1,2.8,0.1,4.1,0.7l0.7-3.3c-1.2-0.5-2.6-0.7-3.9-0.7c-4.1,0-7,2.1-7,5.1c-0.1,2.3,2.1,3.5,3.6,4.2
					s2.2,1.3,2.2,2c0,1-1.3,1.5-2.5,1.5c-1.5,0.1-3-0.3-4.3-1l-0.8,3.4c1.5,0.6,3,0.9,4.6,0.8C58.1,39.4,60.9,37.3,61,34.1z
					 M43.7,23.6L37,39.2h-4.4l-3.3-12.5c-0.2-0.8-0.4-1-0.9-1.4c-1.3-0.6-2.7-1-4.1-1.3l0.1-0.4h7.1c0.9,0,1.8,0.7,1.9,1.6l1.7,8.9
					l4.3-10.6L43.7,23.6L43.7,23.6z"/>
			</defs>
			<clipPath id="SVGID_9_">
				<use xlink:href="#SVGID_8_"  style="overflow:visible;"/>
			</clipPath>
			<rect x="21.5" y="20.6" class="st4" width="57" height="21.5"/>
		</g>
	</g>
</g>
</svg>
